<svg xmlns="http://www.w3.org/2000/svg" width="27.146" height="19" viewBox="0 0 27.146 19">
  <path id="Icon_awesome-users-cog" data-name="Icon awesome-users-cog" d="M25.9,15.373a4.976,4.976,0,0,0,0-1.807l1.094-.632a.307.307,0,0,0,.14-.361,6.366,6.366,0,0,0-1.408-2.435.309.309,0,0,0-.382-.059l-1.094.632a4.98,4.98,0,0,0-1.565-.9V8.544a.309.309,0,0,0-.242-.3,6.4,6.4,0,0,0-2.808,0,.309.309,0,0,0-.242.3V9.808a4.98,4.98,0,0,0-1.565.9l-1.094-.632a.31.31,0,0,0-.382.059,6.366,6.366,0,0,0-1.408,2.435.312.312,0,0,0,.14.361l1.094.632a4.976,4.976,0,0,0,0,1.807l-1.094.632a.307.307,0,0,0-.14.361A6.4,6.4,0,0,0,16.349,18.8a.309.309,0,0,0,.382.059l1.094-.632a4.98,4.98,0,0,0,1.565.9V20.4a.309.309,0,0,0,.242.3,6.4,6.4,0,0,0,2.808,0,.309.309,0,0,0,.242-.3V19.132a4.98,4.98,0,0,0,1.565-.9l1.094.632a.31.31,0,0,0,.382-.059,6.366,6.366,0,0,0,1.408-2.435.312.312,0,0,0-.14-.361ZM21.04,16.527A2.057,2.057,0,1,1,23.1,14.47,2.059,2.059,0,0,1,21.04,16.527ZM4.072,10.4A2.715,2.715,0,1,0,1.357,7.683,2.717,2.717,0,0,0,4.072,10.4Zm9.5,1.357c.081,0,.157-.021.238-.025a7.82,7.82,0,0,1,1.54-2.511,1.672,1.672,0,0,1,1.226-.534,1.631,1.631,0,0,1,.831.225l.335.2c.034-.021.068-.038.1-.059a4.7,4.7,0,0,0,.475-2.036,4.749,4.749,0,1,0-4.747,4.747Zm4.463,8.251c-.1-.051-.2-.11-.288-.165a2.1,2.1,0,0,1-1.167.416,1.686,1.686,0,0,1-1.226-.534,7.735,7.735,0,0,1-1.705-2.952,1.81,1.81,0,0,1,1.094-2.134q-.006-.165,0-.331l-.335-.2a1.728,1.728,0,0,1-.416-.344c-.14.008-.276.025-.416.025a6.7,6.7,0,0,1-2.906-.679h-.352A4.889,4.889,0,0,0,5.43,18v1.222a2.037,2.037,0,0,0,2.036,2.036H18.3a1.633,1.633,0,0,1-.263-.861v-.39ZM7.343,12.544a2.707,2.707,0,0,0-1.913-.789H2.715A2.717,2.717,0,0,0,0,14.47v1.357a1.356,1.356,0,0,0,1.357,1.357h2.8a6.221,6.221,0,0,1,3.19-4.641Z" transform="translate(0 -2.257)" fill="#fff"/>
</svg>
