<svg xmlns="http://www.w3.org/2000/svg" width="154.984" height="49.749" viewBox="0 0 154.984 49.749">
  <defs>
    <style>
      .cls-1 {
        fill: #fff;
      }

      .cls-2 {
        fill: #72f573;
      }
    </style>
  </defs>
  <g id="Group_5" data-name="Group 5" transform="translate(-64.768 -143.011)">
    <g id="Group_1" data-name="Group 1" transform="translate(96.897 149.619)">
      <path id="Path_2" data-name="Path 2" class="cls-1" d="M123.644,186.684a2.073,2.073,0,0,1-1.465-3.539l12.194-12.2L121.6,157.844l-5.537,5.414a2.073,2.073,0,1,1-2.9-2.964l7.022-6.866a2.073,2.073,0,0,1,2.934.036l15.645,16.059a2.073,2.073,0,0,1-.019,2.912l-13.642,13.642A2.064,2.064,0,0,1,123.644,186.684Z" transform="translate(-112.545 -152.837)"/>
    </g>
    <g id="Group_2" data-name="Group 2" transform="translate(74.096 152.339)">
      <path id="Path_3" data-name="Path 3" class="cls-2" d="M94.186,187.975a15.547,15.547,0,1,1,15.547-15.547A15.564,15.564,0,0,1,94.186,187.975Zm0-26.947a11.4,11.4,0,1,0,11.4,11.4A11.414,11.414,0,0,0,94.186,161.028Z" transform="translate(-78.639 -156.882)"/>
    </g>
    <g id="Group_3" data-name="Group 3" transform="translate(64.768 143.011)">
      <path id="Path_4" data-name="Path 4" class="cls-1" d="M89.643,192.76a24.875,24.875,0,1,1,0-49.749c5.887,0,9.073.972,9.74,2.972a2.073,2.073,0,0,1-3.6,1.928c-.343-.178-1.787-.755-6.136-.755A20.729,20.729,0,1,0,106.4,180.1a2.072,2.072,0,1,1,3.348,2.443A24.967,24.967,0,0,1,89.643,192.76Zm5.813-45.447Zm0,0h0Zm0,0h0Zm0,0h0Zm0,0h0Zm0,0h0Zm0,0h0Z" transform="translate(-64.768 -143.011)"/>
    </g>
    <g id="Group_4" data-name="Group 4" transform="translate(129.108 158.447)">
      <path id="Path_5" data-name="Path 5" class="cls-2" d="M179.643,175.584a9.2,9.2,0,0,1-.763,3.735,9.87,9.87,0,0,1-2.073,3.05,9.6,9.6,0,0,1-6.824,2.8,9.412,9.412,0,0,1-6.765-2.8,9.738,9.738,0,0,1-2.034-3.05,9.407,9.407,0,0,1-.743-3.735,9.639,9.639,0,0,1,.743-3.792,9.47,9.47,0,0,1,8.8-5.828,9.556,9.556,0,0,1,3.754.743,9.722,9.722,0,0,1,3.07,2.034,9.584,9.584,0,0,1,2.073,3.051A9.429,9.429,0,0,1,179.643,175.584Zm-9.659-7a6.654,6.654,0,0,0-2.7.548,6.9,6.9,0,0,0-2.189,1.506,7.248,7.248,0,0,0-1.487,2.229,6.782,6.782,0,0,0-.548,2.718,6.685,6.685,0,0,0,.548,2.679,7.232,7.232,0,0,0,1.487,2.229A6.891,6.891,0,0,0,167.285,182a6.664,6.664,0,0,0,2.7.547A6.8,6.8,0,0,0,172.7,182a7.074,7.074,0,0,0,3.734-3.735,6.708,6.708,0,0,0,.548-2.679,6.8,6.8,0,0,0-.548-2.718,7.07,7.07,0,0,0-3.734-3.734A6.793,6.793,0,0,0,169.984,168.584Z" transform="translate(-160.442 -165.964)"/>
      <path id="Path_6" data-name="Path 6" class="cls-2" d="M200.2,169.562a5.512,5.512,0,0,1,.8-1.27,5.639,5.639,0,0,1,1.31-1.154,7.5,7.5,0,0,1,4.106-1.173,8.9,8.9,0,0,1,3.108.528,6.814,6.814,0,0,1,2.484,1.584,7.225,7.225,0,0,1,1.643,2.64,10.5,10.5,0,0,1,.586,3.657v9.111q0,1.485-1.329,1.486-1.29,0-1.29-1.486v-9.151a6.527,6.527,0,0,0-.449-2.523,4.957,4.957,0,0,0-1.252-1.8,5.209,5.209,0,0,0-1.838-1.076,6.823,6.823,0,0,0-2.209-.352,5.816,5.816,0,0,0-2.249.43,5.223,5.223,0,0,0-1.8,1.232,5.644,5.644,0,0,0-1.192,1.974,7.667,7.667,0,0,0-.43,2.66v8.642q0,1.449-1.369,1.447-1.291,0-1.29-1.447V167.842q0-1.447,1.29-1.447,1.369,0,1.369,1.447Z" transform="translate(-172.592 -165.964)"/>
      <path id="Path_7" data-name="Path 7" class="cls-1" d="M246.64,167.861q0-1.447,1.329-1.447,1.368,0,1.369,1.447v17.246a9.441,9.441,0,0,1-5.826,8.838,9.689,9.689,0,0,1-3.793.743,10.774,10.774,0,0,1-3.852-.7,8.29,8.29,0,0,1-3.07-1.956,1.569,1.569,0,0,1-.508-1.133,1.184,1.184,0,0,1,.372-.9,1.288,1.288,0,0,1,.919-.351,1.222,1.222,0,0,1,.625.156,3.348,3.348,0,0,1,.508.352,9.167,9.167,0,0,0,2.327,1.407,6.959,6.959,0,0,0,2.679.509,6.714,6.714,0,0,0,2.678-.547,6.936,6.936,0,0,0,3.7-3.7,6.808,6.808,0,0,0,.547-2.718v-3.638a6.22,6.22,0,0,1-2.718,2.719,8.127,8.127,0,0,1-3.891,1,9.05,9.05,0,0,1-6.589-2.776,9.44,9.44,0,0,1-1.936-3.05,10.472,10.472,0,0,1,0-7.547,9.436,9.436,0,0,1,1.936-3.051,8.729,8.729,0,0,1,2.932-2.013,9.241,9.241,0,0,1,3.657-.724,8.536,8.536,0,0,1,3.93.978,6.983,6.983,0,0,1,1.584,1.154,5.068,5.068,0,0,1,1.094,1.545Zm-6.609.782a6.3,6.3,0,0,0-2.621.547,6.393,6.393,0,0,0-2.091,1.505,6.969,6.969,0,0,0-1.368,2.229,7.4,7.4,0,0,0-.489,2.679,7.5,7.5,0,0,0,.489,2.718,6.7,6.7,0,0,0,1.368,2.209,6.493,6.493,0,0,0,2.091,1.487,6.3,6.3,0,0,0,2.621.547,6.392,6.392,0,0,0,2.659-.547,6.5,6.5,0,0,0,2.092-1.487,6.714,6.714,0,0,0,1.369-2.209,7.525,7.525,0,0,0,.488-2.718,7.429,7.429,0,0,0-.488-2.679,6.982,6.982,0,0,0-1.369-2.229,6.338,6.338,0,0,0-4.751-2.052Z" transform="translate(-183.486 -165.983)"/>
      <path id="Path_8" data-name="Path 8" class="cls-1" d="M285.881,175.584a9.214,9.214,0,0,1-.762,3.735,9.872,9.872,0,0,1-2.073,3.05,9.6,9.6,0,0,1-6.824,2.8,9.412,9.412,0,0,1-6.765-2.8,9.75,9.75,0,0,1-2.034-3.05,9.406,9.406,0,0,1-.742-3.735,9.638,9.638,0,0,1,.742-3.792,9.625,9.625,0,0,1,12.553-5.085,9.714,9.714,0,0,1,3.07,2.034,9.586,9.586,0,0,1,2.073,3.051A9.441,9.441,0,0,1,285.881,175.584Zm-9.659-7a6.653,6.653,0,0,0-2.7.548,6.9,6.9,0,0,0-2.19,1.506,7.248,7.248,0,0,0-1.487,2.229,6.792,6.792,0,0,0-.547,2.718,6.7,6.7,0,0,0,.547,2.679,7.232,7.232,0,0,0,1.487,2.229,6.886,6.886,0,0,0,2.19,1.506,6.664,6.664,0,0,0,2.7.547A6.8,6.8,0,0,0,278.94,182a7.072,7.072,0,0,0,3.735-3.735,6.707,6.707,0,0,0,.547-2.679,6.8,6.8,0,0,0-.547-2.718,7.068,7.068,0,0,0-3.735-3.734A6.793,6.793,0,0,0,276.222,168.584Z" transform="translate(-195.236 -165.964)"/>
    </g>
  </g>
</svg>
